<?xml version="1.0" encoding="utf-8"?>
<!-- Generator: Adobe Illustrator 21.1.0, SVG Export Plug-In . SVG Version: 6.00 Build 0)  -->
<svg version="1.1" id="Layer_1" xmlns="http://www.w3.org/2000/svg" xmlns:xlink="http://www.w3.org/1999/xlink" x="0px" y="0px"
	 viewBox="0 0 100 125" style="enable-background:new 0 0 100 125;" xml:space="preserve">
<style type="text/css">
	.st0{fill:#FFFFFF;stroke:#000000;stroke-width:7.812500e-02;stroke-miterlimit:10;}
</style>
<path class="st0" d="M48.5,53.6c-0.4-0.1-0.7-0.5-0.7-0.9c0-0.6,0.4-1,0.9-1.1c0.5,0,0.9,0.3,1,0.7l0.4,0c-0.2-0.6-0.8-1.1-1.4-1.1
	c-0.8,0-1.3,0.7-1.3,1.5c0,0.7,0.5,1.2,1.2,1.3L48.5,53.6z"/>
<path class="st0" d="M49.8,52.2c0,0.1,0.1,0.2,0.1,0.4c0,0.6-0.4,1.2-1,1.2c-0.1,0-0.3,0-0.4,0l0,0.3c0.1,0,0.2,0,0.4,0
	c0.8,0,1.3-0.7,1.3-1.5c0-0.1,0-0.2-0.1-0.4L49.8,52.2z"/>
<path class="st0" d="M49.3,50.2l-1.4,0.1c0,0.9-0.4,1.8-0.4,1.8C48.7,50.8,50,52,50,52L49.3,50.2z M48.4,50.8
	c-0.1,0-0.2-0.1-0.2-0.2c0-0.1,0.1-0.2,0.2-0.2c0.1,0,0.2,0.1,0.2,0.2C48.5,50.7,48.4,50.8,48.4,50.8z M49,50.7
	c-0.1,0-0.2-0.1-0.2-0.2c0-0.1,0.1-0.2,0.2-0.2c0.1,0,0.2,0.1,0.2,0.2C49.2,50.7,49.1,50.7,49,50.7z"/>
<path class="st0" d="M53.5,47.6c-0.2-0.4-0.6-0.6-1-0.5c-0.6,0.1-0.9,0.6-0.8,1.2c0.1,0.5,0.4,0.8,0.9,0.9l0.1,0.4
	c-0.7,0-1.2-0.5-1.3-1.2c-0.1-0.8,0.4-1.5,1.2-1.6c0.7-0.1,1.3,0.3,1.5,0.9L53.5,47.6z"/>
<path class="st0" d="M52.4,49.1c0.1,0,0.2,0,0.3,0c0.6-0.1,1-0.7,0.9-1.3c0-0.1-0.1-0.3-0.1-0.4l0.3,0c0.1,0.1,0.1,0.2,0.1,0.4
	c0.1,0.8-0.4,1.5-1.2,1.6c-0.1,0-0.2,0-0.3,0L52.4,49.1z"/>
<path class="st0" d="M52.3,49.4c0,0-1.5-1-0.4-2.5c0,0-0.8,0.6-1.7,0.8l0.2,1.4L52.3,49.4z M50.6,48.2c-0.1,0-0.2,0-0.2-0.1
	c0-0.1,0-0.2,0.1-0.2c0.1,0,0.2,0,0.2,0.1C50.7,48.1,50.7,48.2,50.6,48.2z M50.7,48.9c-0.1,0-0.2,0-0.2-0.1c0-0.1,0-0.2,0.1-0.2
	c0.1,0,0.2,0,0.2,0.1C50.8,48.8,50.8,48.9,50.7,48.9z"/>
<path class="st0" d="M49,50.5c-0.1,0.1-0.2,0.1-0.3,0.1l0,0c-0.1,0-0.2-0.1-0.3-0.1c-0.1-0.1-0.1-0.2-0.1-0.3l0-0.4
	c0-0.1,0.1-0.2,0.1-0.3c0.1-0.1,0.1-0.1,0.2-0.1c0,0,0,0,0,0l0,0l0,0l0,0l0,0l0,0.2l0,0l0,0c0,0-0.1,0-0.1,0c0,0-0.1,0.1-0.1,0.1
	l0,0.4c0,0,0,0.1,0,0.1c0,0,0.1,0.1,0.1,0.1l0,0c0,0,0.1,0,0.1,0c0,0,0.1-0.1,0.1-0.1l0-0.2c0-0.1,0.1-0.1,0.1-0.1
	c0.1,0,0.1,0.1,0.1,0.1l0,0.2C49.1,50.3,49,50.4,49,50.5L49,50.5z"/>
<path class="st0" d="M50.3,48.1c0.1,0,0.2,0.1,0.2,0.2l0,0c0,0.1,0,0.2,0,0.3c0,0.1-0.1,0.2-0.2,0.2L49.8,49c-0.1,0-0.2,0-0.3,0
	c-0.1,0-0.1-0.1-0.2-0.2c0,0,0,0,0,0l0,0l0,0v0l0,0l0.2-0.1v0l0,0c0,0,0,0.1,0.1,0.1c0,0,0.1,0,0.1,0l0.4-0.1c0,0,0.1,0,0.1-0.1
	c0,0,0-0.1,0-0.1l0,0c0,0,0-0.1-0.1-0.1c0,0-0.1,0-0.1,0l-0.2,0c-0.1,0-0.1,0-0.2-0.1c0-0.1,0-0.1,0.1-0.2l0.2,0
	C50.1,48.1,50.2,48.1,50.3,48.1L50.3,48.1z"/>
<path class="st0" d="M48.9,48.8C48.9,48.8,48.9,48.8,48.9,48.8l0.1-0.2c0,0,0,0,0,0l0,0c-0.1,0-0.2,0-0.3,0.1
	c-0.1,0.1-0.1,0.2-0.1,0.3l0,0.2c0,0.1,0,0.1,0.1,0.1s0.1,0,0.1-0.1l0-0.2c0,0,0-0.1,0.1-0.1C48.8,48.8,48.8,48.8,48.9,48.8
	L48.9,48.8z"/>
<path class="st0" d="M49.5,48.5C49.5,48.5,49.5,48.5,49.5,48.5l0.2,0c0,0,0,0,0,0l0,0c0-0.1-0.1-0.2-0.2-0.2c-0.1,0-0.2-0.1-0.3,0
	l-0.2,0c-0.1,0-0.1,0.1-0.1,0.2c0,0.1,0.1,0.1,0.2,0.1l0.2,0c0,0,0.1,0,0.1,0C49.5,48.4,49.5,48.4,49.5,48.5L49.5,48.5z"/>
<path class="st0" d="M49.1,49.4L49.1,49.4c0-0.1,0-0.2-0.1-0.2c-0.1,0-0.1,0-0.1,0.1l0,0.1h0l0,0.1c0,0,0,0.1-0.1,0.1
	c0,0-0.1,0-0.1,0l0,0l0,0.2l0,0c0.1,0,0.2,0,0.3-0.1l0,0c0.1-0.1,0.2-0.1,0.2-0.3L49.1,49.4L49.1,49.4z"/>
<path class="st0" d="M49.3,48.7L49.3,48.7c0-0.1,0-0.1-0.1-0.1c-0.1,0-0.1,0-0.1,0.1l0,0.1l0,0l0,0.1c0,0,0,0.1-0.1,0.1
	c0,0-0.1,0-0.1,0l0,0l0,0.2l0,0c0.1,0,0.2,0,0.3-0.1l0,0c0.1-0.1,0.1-0.2,0.1-0.3L49.3,48.7L49.3,48.7z"/>
</svg>
